{"title":"Frank Ocean - Swim Good [Music Video] 720p [Sbyky]","uid":11892849,"size":51756178,"categoryP":"video","categoryS":"music_videos","magnet":"?xt=urn:btih:724275946550d3671e980d682a9e05ee12b8123d&amp;dn=Frank+Ocean+-+Swim+Good+%5BMusic+Video%5D+720p+%5BSbyky%5D&amp;tr=udp%3A%2F%2Ftracker.openbittorrent.com%3A80&amp;tr=udp%3A%2F%2Fopen.demonii.com%3A1337&amp;tr=udp%3A%2F%2Ftracker.coppersurfer.tk%3A6969&amp;tr=udp%3A%2F%2Fexodus.desync.com%3A6969","seeders":1,"leechers":0,"uploader":"Sbyky","files":1,"time":1431034659,"description":"General\nComplete name                            : Frank Ocean - Swim Good [Music Video] 720p [Sbyky].mp4\nFormat                                   : MPEG-4\nFormat profile                           : Base Media\nCodec ID                                 : isom\nFile size                                : 49.4 MiB\nDuration                                 : 4mn 35s\nOverall bit rate mode                    : Variable\nOverall bit rate                         : 1 501 Kbps\nEncoded date                             : UTC 2015-02-04 22:58:53\nTagged date                              : UTC 2015-02-04 22:58:53\n\nVideo\nID                                       : 1\nFormat                                   : AVC\nFormat/Info                              : Advanced Video Codec\nFormat profile                           : &lt;a class=&quot;__cf_email__&quot; href=&quot;/cdn-cgi/l/email-protection&quot; data-cfemail=&quot;fcb19d9592bcb0cfd2cd&quot;&gt;[email&amp;#160;protected]&lt;/a&gt;&lt;script cf-hash='f9e31' type=&quot;text/javascript&quot;&gt;\n/* &lt;![CDATA[ */!function(){try{var t=&quot;currentScript&quot;in document?document.currentScript:function(){for(var t=document.getElementsByTagName(&quot;script&quot;),e=t.length;e--;)if(t[e].getAttribute(&quot;cf-hash&quot;))return t[e]}();if(t&amp;&amp;t.previousSibling){var e,r,n,i,c=t.previousSibling,a=c.getAttribute(&quot;data-cfemail&quot;);if(a){for(e=&quot;&quot;,r=parseInt(a.substr(0,2),16),n=2;a.length-n;n+=2)i=parseInt(a.substr(n,2),16)^r,e+=String.fromCharCode(i);e=document.createTextNode(e),c.parentNode.replaceChild(e,c)}}}catch(u){}}();/* ]]&gt; */&lt;/script&gt;\nFormat settings, CABAC                   : Yes\nFormat settings, ReFrames                : 3 frames\nCodec ID                                 : avc1\nCodec ID/Info                            : Advanced Video Coding\nDuration                                 : 4mn 35s\nBit rate                                 : 1 371 Kbps\nWidth                                    : 1 280 pixels\nHeight                                   : 720 pixels\nDisplay aspect ratio                     : 16:9\nFrame rate mode                          : Variable\nFrame rate                               : 23.976 fps\nMinimum frame rate                       : 23.974 fps\nMaximum frame rate                       : 23.981 fps\nColor space                              : YUV\nChroma subsampling                       : 4:2:0\nBit depth                                : 8 bits\nScan type                                : Progressive\nBits/(Pixel*Frame)                       : 0.062\nStream size                              : 45.1 MiB (91%)\nEncoded date                             : UTC 2015-02-04 22:58:53\nTagged date                              : UTC 2015-02-04 22:58:53\n\nAudio\nID                                       : 2\nFormat                                   : AAC\nFormat/Info                              : Advanced Audio Codec\nFormat profile                           : LC\nCodec ID                                 : 40\nDuration                                 : 4mn 35s\nBit rate mode                            : Variable\nBit rate                                 : 126 Kbps\nChannel(s)                               : 2 channels\nChannel positions                        : Front: L R\nSampling rate                            : 44.1 KHz\nCompression mode                         : Lossy\nStream size                              : 4.13 MiB (8%)\nEncoded date                             : UTC 2015-02-04 22:56:29\nTagged date                              : UTC 2015-02-04 22:56:29\n\nShared By Sbyky\n[IMG]http://yuq.me/users/18/139/0aq32UMZvX.gif[/IMG]\n[IMG]http://yuq.me/users/18/139/bQg62viaEG.gif[/IMG]","torrent":{"xt":"urn:btih:724275946550d3671e980d682a9e05ee12b8123d","amp;dn":"Frank+Ocean+-+Swim+Good+%5BMusic+Video%5D+720p+%5BSbyky%5D","amp;tr":["udp%3A%2F%2Ftracker.openbittorrent.com%3A80","udp%3A%2F%2Fopen.demonii.com%3A1337","udp%3A%2F%2Ftracker.coppersurfer.tk%3A6969","udp%3A%2F%2Fexodus.desync.com%3A6969"],"infoHash":"724275946550d3671e980d682a9e05ee12b8123d","infoHashBuffer":{"type":"Buffer","data":[114,66,117,148,101,80,211,103,30,152,13,104,42,158,5,238,18,184,18,61]},"announce":[],"urlList":[]}}